<?xml version="1.0" encoding="utf-8"?>
<!-- Generator: Adobe Illustrator 19.0.0, SVG Export Plug-In . SVG Version: 6.00 Build 0)  -->
<svg version="1.1" id="Layer_1" xmlns="http://www.w3.org/2000/svg" xmlns:xlink="http://www.w3.org/1999/xlink" x="0px" y="0px"
	 viewBox="0 0 114.9 88.2" style="enable-background:new 0 0 114.9 88.2;" xml:space="preserve">
<style type="text/css">
	.st0{fill:#FFFFFF;}
</style>
<g id="XMLID_1_">
	<path id="XMLID_3_" class="st0" d="M51.4,16.7C37.1,23.7,30,31.8,30,41.2c6.1,0.7,11.2,3.2,15.1,7.4c3.9,4.2,5.9,9.1,5.9,14.7
		c0,5.9-1.9,10.9-5.8,15c-3.9,4.1-8.7,6.1-14.5,6.1c-6.5,0-12.1-2.6-16.8-7.9c-4.7-5.3-7-11.7-7-19.2c0-22.6,12.6-40.3,37.7-53
		L51.4,16.7z M108.1,16.7c-14.1,7-21.2,15.1-21.2,24.5c6,0.7,11,3.2,15,7.4c3.9,4.2,5.9,9.1,5.9,14.7c0,5.9-1.9,10.9-5.7,15
		c-3.8,4.1-8.6,6.1-14.4,6.1c-6.5,0-12.1-2.6-16.9-7.9c-4.8-5.3-7.1-11.7-7.1-19.2c0-22.6,12.6-40.3,37.9-53L108.1,16.7z"/>
</g>
</svg>
