<?xml version="1.0" encoding="utf-8"?>
<!-- Generator: Adobe Illustrator 16.0.0, SVG Export Plug-In . SVG Version: 6.00 Build 0)  -->
<!DOCTYPE svg PUBLIC "-//W3C//DTD SVG 1.1//EN" "http://www.w3.org/Graphics/SVG/1.1/DTD/svg11.dtd">
<svg version="1.1" id="Layer_1" xmlns="http://www.w3.org/2000/svg" xmlns:xlink="http://www.w3.org/1999/xlink" x="0px" y="0px" viewBox="0 0 302 42.333" enable-background="new 0 0 302 42.333" xml:space="preserve">
<g>
<g>
<g>
<path fill="#A9BD38" d="M43.286,20.62c-0.455,0-0.902,0.062-1.326,0.165c-1.668-6.608-7.193-11.675-14.039-12.688
c-0.102-1.153,0.339-2.963,3.225-4.707l-0.086-0.17c0,0-4.832,1.529-5.925,4.546c0.048-0.942-0.295-2.357-2.395-3.364
c0,0-0.166,0.057-0.082,0.132c0.417,0.384,1.743,1.667,1.18,3.453C16.562,8.649,10.605,13.88,8.86,20.785
c-0.423-0.104-0.865-0.165-1.326-0.165c-3.053,0-5.54,2.479-5.54,5.545c0,3.055,2.487,5.539,5.54,5.539
c0.716,0,1.396-0.143,2.024-0.389c0.478,1.188,1.082,2.313,1.8,3.351l4.62-3.113l-0.06-0.038
c-1.217-1.562-1.96-3.864-2.083-6.154c-0.139-2.526,0.478-5.038,2.091-6.512c3.327-2.832,6.948-1.542,9.217,1.173h0.605
c2.27-2.66,5.852-3.897,9.15-1.095c1.594,1.465,2.215,3.932,2.094,6.423c-0.109,2.313-0.858,4.652-2.08,6.225l4.555,3.092
c0.714-1.039,1.32-2.161,1.795-3.351c0.625,0.246,1.308,0.389,2.022,0.389c3.06,0,5.541-2.484,5.541-5.545
C48.826,23.101,46.346,20.62,43.286,20.62 M7.725,27.272c-0.609,0-1.108-0.495-1.108-1.112c0-0.614,0.499-1.11,1.108-1.11
c0.234,0,0.45,0.071,0.629,0.191c0.005,0.589,0.05,1.167,0.119,1.74C8.272,27.16,8.013,27.272,7.725,27.272 M43.094,27.274
c-0.287,0-0.546-0.11-0.743-0.286c0.067-0.574,0.112-1.158,0.119-1.748c0.179-0.12,0.395-0.191,0.625-0.191
c0.611,0,1.112,0.499,1.112,1.116C44.206,26.781,43.706,27.274,43.094,27.274"/>
</g>
<g>
<path fill="#5B5A4B" d="M60.952,27.022c1.701,1.814,4.093,3.084,6.739,3.084c3.19-0.033,5.439-1.23,5.439-3.408
c0-5.074-14.681-0.179-14.681-9.458c0-4.061,4.239-6.85,9.424-6.85c3.77,0,6.812,1.193,9.061,3.477l-3.118,2.792
c-2.065-2.028-3.949-2.716-6.159-2.716c-3.48,0-4.786,1.702-4.786,3.082c0,5.106,14.678,0,14.678,9.457
c0,4.746-4.821,7.613-10.037,7.613c-3.19,0-6.886-1.199-9.75-4.205L60.952,27.022z"/>
<path fill="#5B5A4B" d="M80.123,16.078h3.77v9.825c0,2.57,1.884,4.419,4.243,4.419c2.356,0,4.24-1.849,4.24-4.419v-9.825h3.767
v10.15c0,4.929-3.839,7.866-8.007,7.866c-4.169,0-8.013-2.938-8.013-7.866V16.078z"/>
<path fill="#5B5A4B" d="M100.059,16.078h3.551v1.921h0.071c0.617-1.449,1.921-2.394,3.446-2.394c0.83,0,1.556,0.221,2.062,0.546
l-1.34,3.733c-0.363-0.291-1.051-0.508-1.415-0.508c-1.377,0-2.607,1.051-2.607,2.647v11.598h-3.77L100.059,16.078
L100.059,16.078z"/>
<polygon fill="#5B5A4B" points="110.641,16.078 114.848,16.078 118.723,26.118 118.795,26.118 122.673,16.078 126.88,16.078
118.759,34.094
"/>
<path fill="#5B5A4B" d="M145.293,29.813c-2.104,2.646-5.004,4.242-8.158,4.281c-6.125,0-9.676-4.607-9.676-9.244
c0-4.641,3.55-9.245,9.676-9.245c3.662,0,9.097,3.013,9.097,9.859v0.691h-14.571c0.22,2.682,2.721,4.604,5.367,4.604
c2.028,0,3.769-0.985,5.073-2.726L145.293,29.813z M141.812,23.038c-0.796-2.685-2.792-4.096-5.183-4.096
c-2.395,0-4.35,1.487-4.969,4.096H141.812z"/>
<path fill="#5B5A4B" d="M148.917,16.078h3.768v10.293c0,2.939,1.812,4.168,4.13,4.168c2.937,0,4.354-1.812,4.354-4.526v-9.935
h3.769V33.08c0,5.36-4.752,7.716-8.011,7.716c-3.951,0-5.729-1.483-7.434-3.439l3.191-1.959c1.196,1.159,2.394,1.852,4.025,1.852
c2.498,0,4.674-1.523,4.674-4.604v-0.944h-0.073c-1.485,1.669-2.865,2.395-5.291,2.395c-3.917,0-7.104-2.937-7.104-7.866V16.078
H148.917z"/>
<polygon fill="#5B5A4B" points="169.248,10.389 179.358,20.612 189.473,10.389 189.473,33.621 185.269,33.621 185.269,19.556
179.358,25.682 173.453,19.556 173.453,33.621 169.248,33.621 "/>
<path fill="#5B5A4B" d="M201.835,15.606c6.126,0,9.675,4.604,9.675,9.246c0,4.636-3.549,9.243-9.675,9.243
c-6.129,0-9.68-4.607-9.68-9.243C192.155,20.21,195.705,15.606,201.835,15.606 M201.835,30.537c3.295,0,5.688-2.532,5.688-5.685
s-2.396-5.689-5.688-5.689c-3.3,0-5.69,2.537-5.69,5.689C196.142,28.005,198.534,30.537,201.835,30.537"/>
<path fill="#5B5A4B" d="M214.157,16.078h3.767v2.213h0.073c1.052-1.629,2.971-2.685,5.366-2.685c3.697,0,6.812,3.083,6.812,7.432
v10.583h-3.768v-9.748c0-3.188-1.669-4.495-4.171-4.495c-2.427,0-4.314,1.559-4.314,4.424v9.819h-3.767V16.078H214.157z"/>
<polygon fill="#5B5A4B" points="235.541,26.3 233.074,26.3 233.074,22.748 235.541,22.748 235.541,10.857 239.309,10.857
239.309,22.748 241.229,22.748 245.833,16.078 250.396,16.078 244.455,24.34 250.69,33.621 246.231,33.621 241.591,26.3
239.309,26.3 239.309,33.621 235.541,33.621 "/>
<path fill="#5B5A4B" d="M269.68,29.813c-2.101,2.646-4.998,4.242-8.153,4.281c-6.121,0-9.679-4.607-9.679-9.244
c0-4.641,3.558-9.245,9.679-9.245c3.659,0,9.101,3.013,9.101,9.859v0.691h-14.572c0.216,2.682,2.718,4.604,5.363,4.604
c2.032,0,3.769-0.985,5.076-2.726L269.68,29.813z M266.203,23.038c-0.797-2.685-2.793-4.096-5.185-4.096
c-2.393,0-4.349,1.487-4.966,4.096H266.203z"/>
<path fill="#5B5A4B" d="M272.945,16.078h3.767v10.293c0,2.939,1.813,4.168,4.134,4.168c2.937,0,4.35-1.812,4.35-4.526v-9.935
h3.77V33.08c0,5.36-4.748,7.716-8.01,7.716c-3.952,0-5.725-1.483-7.43-3.439l3.187-1.959c1.198,1.159,2.396,1.852,4.024,1.852
c2.498,0,4.674-1.523,4.674-4.604v-0.944h-0.071c-1.487,1.669-2.861,2.395-5.291,2.395c-3.915,0-7.103-2.937-7.103-7.866V16.078
L272.945,16.078z"/>
</g>
</g>
<g>
<path fill="#848378" d="M296.021,17.502h-1.466v4.27h0.693v-1.814h0.403c0.237,0,0.418,0.054,0.545,0.149
c0.183,0.132,0.427,0.462,0.728,0.991l0.375,0.674h0.836l-0.52-0.838c-0.242-0.391-0.454-0.674-0.632-0.842
c-0.092-0.087-0.208-0.164-0.36-0.23c0.37-0.024,0.666-0.152,0.882-0.386c0.229-0.23,0.341-0.502,0.341-0.818
c0-0.223-0.072-0.431-0.203-0.621c-0.138-0.201-0.312-0.335-0.536-0.421C296.884,17.537,296.522,17.502,296.021,17.502
M295.249,19.371v-1.292h0.78c0.338,0,0.563,0.023,0.688,0.07c0.128,0.056,0.224,0.125,0.295,0.229
c0.066,0.102,0.1,0.209,0.1,0.334c0,0.207-0.073,0.357-0.218,0.479c-0.143,0.122-0.418,0.181-0.811,0.181h-0.834 M296.294,22.886
c-0.568,0-1.12-0.146-1.642-0.439c-0.533-0.29-0.938-0.701-1.233-1.222c-0.294-0.528-0.438-1.079-0.438-1.645
c0-0.575,0.151-1.131,0.439-1.667c0.302-0.527,0.714-0.937,1.247-1.224c0.523-0.284,1.065-0.427,1.625-0.427
c0.549,0,1.094,0.144,1.622,0.427c0.536,0.288,0.943,0.695,1.236,1.224c0.299,0.536,0.443,1.092,0.443,1.667
c0,0.566-0.146,1.116-0.433,1.645c-0.293,0.521-0.699,0.932-1.228,1.222C297.414,22.74,296.87,22.886,296.294,22.886
M296.294,15.606c-0.668,0-1.317,0.175-1.951,0.518c-0.638,0.335-1.123,0.828-1.483,1.465c-0.359,0.632-0.534,1.293-0.534,1.992
c0,0.68,0.175,1.337,0.521,1.968c0.354,0.632,0.839,1.119,1.474,1.474c0.632,0.346,1.296,0.521,1.977,0.521
c0.688,0,1.348-0.175,1.968-0.521c0.629-0.354,1.117-0.842,1.469-1.474c0.354-0.629,0.53-1.288,0.53-1.968
c0-0.699-0.178-1.36-0.534-1.992c-0.352-0.638-0.851-1.13-1.49-1.465C297.61,15.782,296.959,15.606,296.294,15.606"/>
</g>
</g>
</svg>