<?xml version="1.0" encoding="utf-8"?>
<!-- Generator: Adobe Illustrator 16.0.0, SVG Export Plug-In . SVG Version: 6.00 Build 0)  -->
<!DOCTYPE svg PUBLIC "-//W3C//DTD SVG 1.1//EN" "http://www.w3.org/Graphics/SVG/1.1/DTD/svg11.dtd">
<svg version="1.1" id="Layer_1" xmlns="http://www.w3.org/2000/svg" xmlns:xlink="http://www.w3.org/1999/xlink" x="0px" y="0px"
	 width="135.11px" height="78px" viewBox="0 0 135.11 78" enable-background="new 0 0 135.11 78" xml:space="preserve">
<g>
	<rect fill="#FFFFFF" stroke="#000000" width="135.11" height="78"/>
	<g>
		<path fill-rule="evenodd" clip-rule="evenodd" fill="#77787B" d="M69.17,53.469v-15.75c0-17.399-14.104-31.502-31.5-31.502
			c-17.398,0-31.5,14.104-31.5,31.502c0,0.021,6.299,0.021,6.299,0c0-13.919,11.282-25.203,25.201-25.203S62.871,23.8,62.871,37.719
			v15.75H69.17z"/>
		<g>
			<path fill="#F37021" d="M37.694,45.716l-5.369-5.369l0.001-8.135l5.368,5.367l12.22-12.222
				c-3.126-3.126-7.447-5.061-12.221-5.061c-9.545,0-17.282,7.738-17.282,17.284c0,9.546,7.737,17.285,17.282,17.285
				c9.547,0,17.284-7.738,17.284-17.285c0-2.67-0.607-5.201-1.689-7.46L37.694,45.716z"/>
		</g>
		<g>
			<path fill="#77787B" d="M48.213,68.999c-1.572-0.482-1.891-1.843-1.793-3.343h2.273c0,1.035,0.043,1.906,1.296,1.906
				c0.767,0,1.142-0.494,1.142-1.231c0-1.951-4.577-2.075-4.577-5.301c0-1.698,0.813-3.052,3.584-3.052
				c2.211,0,3.312,0.993,3.161,3.26h-2.213c0-0.813-0.135-1.637-1.055-1.637c-0.737,0-1.174,0.405-1.174,1.155
				c0,2.06,4.577,1.878,4.577,5.291c0,1.875-0.923,2.647-2.052,2.951H48.213L48.213,68.999z"/>
			<path fill="#77787B" d="M58.967,61.493c0.016-1.007-0.15-1.892-1.356-1.892c-1.415,0-1.415,1.91-1.415,4.012
				c0,3.391,0.333,3.994,1.626,3.994c0.377,0,0.783-0.09,1.129-0.21v-2.402h-1.234v-1.669h3.508v5.5
				c-0.242,0.045-0.622,0.11-1.053,0.173h-3.889c-2.107-0.521-2.39-2.193-2.39-5.506c0-2.736,0.137-5.515,3.854-5.515
				c2.228,0,3.612,1.248,3.478,3.515H58.967L58.967,61.493z"/>
			<path fill="#77787B" d="M65.521,57.979c1.985-0.002,3.071,0.772,3.222,2.516v0.744h-2.213c0.001-0.789-0.197-1.637-1.115-1.637
				c-0.738,0-1.175,0.405-1.175,1.155c0,1.902,3.911,1.895,4.503,4.573v1.571c-0.24,1.269-1.037,1.843-1.978,2.098h-3.168
				c-1.576-0.482-1.891-1.843-1.796-3.343h2.273c0,1.035,0.045,1.906,1.297,1.906c0.766,0,1.143-0.494,1.143-1.231
				c0-1.951-4.577-2.075-4.577-5.301C61.936,59.332,62.749,57.984,65.521,57.979L65.521,57.979z"/>
			<polygon fill="#F37021" points="39.587,68.993 73.208,68.993 73.208,69.43 39.587,69.43 39.587,68.993 			"/>
			<polygon fill="#F37021" points="68.726,55.982 69.161,55.982 69.161,71.67 68.726,71.67 68.726,55.982 			"/>
		</g>
		<g>
			<path fill="#F37021" stroke="#F37021" d="M6.681,41.26l-0.064-0.611l4.788-0.504l0.064,0.611L6.681,41.26z"/>
			<path fill="#F37021" stroke="#F37021" d="M8.351,42.854l-0.136,0.026c-0.641,0.132-0.76,0.579-0.68,0.964
				c0.098,0.475,0.374,0.801,0.937,0.685c1.044-0.214,0.493-2.306,1.909-2.597c0.835-0.171,1.402,0.33,1.564,1.121
				c0.177,0.86-0.141,1.432-1.109,1.588l-0.129-0.626c0.517-0.1,0.823-0.332,0.706-0.9c-0.074-0.359-0.332-0.688-0.842-0.583
				c-1.037,0.214-0.453,2.297-1.948,2.607c-0.993,0.201-1.452-0.418-1.613-1.195c-0.299-1.386,0.766-1.606,1.219-1.686L8.351,42.854
				z"/>
			<path fill="#F37021" stroke="#F37021" d="M9.455,46.201l1.487-0.534c0.903-0.324,1.646-0.067,1.99,0.892
				c0.346,0.96-0.064,1.631-0.968,1.957l-1.487,0.532c-1.255,0.45-1.917,0.165-2.26-0.796C7.872,47.292,8.201,46.65,9.455,46.201z
				 M10.239,48.469l1.532-0.551c0.947-0.341,0.744-1.003,0.678-1.185c-0.064-0.182-0.331-0.823-1.277-0.485l-1.53,0.551
				c-0.991,0.354-1.138,0.733-0.943,1.28C8.894,48.623,9.249,48.823,10.239,48.469z"/>
			<path fill="#F37021" stroke="#F37021" d="M13.167,53.058c-1.048,0.595-2.076,1.188-2.695,0.1
				c-0.343-0.604-0.16-1.235,0.485-1.586l0.302,0.532c-0.294,0.169-0.537,0.458-0.341,0.801c0.293,0.514,0.879,0.227,1.911-0.36
				l-0.006-0.013c-0.35,0.033-0.594-0.167-0.77-0.475c-0.18-0.318-0.354-1.016,0.746-1.642c0.902-0.514,1.54-0.163,1.843,0.369
				C15.267,51.885,14.25,52.439,13.167,53.058z M13.113,50.941c-0.399,0.229-0.791,0.55-0.527,1.013s0.741,0.292,1.141,0.063
				c0.363-0.206,0.788-0.555,0.527-1.013C13.993,50.548,13.479,50.735,13.113,50.941z"/>
			<path fill="#F37021" stroke="#F37021" d="M15.255,55.965c-0.966,0.722-1.913,1.437-2.663,0.432
				c-0.75-1.005,0.206-1.708,1.172-2.43c1-0.746,1.917-1.456,2.674-0.44C17.196,54.539,16.254,55.219,15.255,55.965z M14.035,54.529
				c-0.625,0.467-1.438,1.016-1.031,1.56c0.406,0.546,1.164-0.077,1.789-0.544c0.999-0.746,1.609-1.211,1.234-1.713
				C15.652,53.33,15.034,53.785,14.035,54.529z"/>
			<path fill="#F37021" stroke="#F37021" d="M17.671,58.588c-0.872,0.836-1.723,1.66-2.588,0.757
				c-0.866-0.905-0.005-1.721,0.867-2.553c0.9-0.862,1.724-1.68,2.599-0.765C19.421,56.941,18.571,57.729,17.671,58.588z
				 M16.286,57.314c-0.563,0.542-1.303,1.182-0.834,1.676c0.471,0.489,1.146-0.221,1.709-0.759c0.9-0.862,1.449-1.395,1.016-1.849
				C17.744,55.93,17.187,56.456,16.286,57.314z"/>
			<path fill="#F37021" stroke="#F37021" d="M18.064,61.962l-0.469-0.394l2.533-3.031l-0.831-0.086l0.375-0.452
				c0.161,0.049,0.711,0.075,0.953,0.079l0.404,0.337L18.064,61.962z"/>
		</g>
		<g>
			<path fill="#FFFFFF" stroke="#FFFFFF" stroke-width="0.2" stroke-miterlimit="3.8637" d="M17.758,18.756l0.066,0.065
				c0.316,0.302,0.606,0.198,0.787,0.008c0.225-0.234,0.297-0.509,0.022-0.773c-0.513-0.492-1.452,0.603-2.147-0.066
				c-0.411-0.394-0.349-0.895,0.022-1.282c0.407-0.424,0.84-0.464,1.292,0.008l-0.294,0.308c-0.251-0.246-0.495-0.326-0.762-0.048
				c-0.169,0.177-0.253,0.443-0.001,0.683c0.51,0.49,1.433-0.62,2.167,0.085c0.487,0.467,0.322,0.955-0.045,1.336
				c-0.649,0.69-1.172,0.188-1.387-0.032L17.758,18.756z"/>
			<path fill="#FFFFFF" stroke="#FFFFFF" stroke-width="0.2" stroke-miterlimit="3.8637" d="M18.926,14.544l0.313-0.272l0.642,2.074
				l0.801,0.923l-0.308,0.269l-0.801-0.923l-1.956-0.935l0.346-0.301l1.491,0.76L18.926,14.544z"/>
			<path fill="#FFFFFF" stroke="#FFFFFF" stroke-width="0.2" stroke-miterlimit="3.8637" d="M21.364,15.494l0.054,0.076
				c0.254,0.354,0.558,0.306,0.771,0.152c0.263-0.189,0.385-0.447,0.163-0.756c-0.415-0.578-1.537,0.326-2.099-0.456
				c-0.332-0.461-0.181-0.942,0.257-1.256c0.475-0.342,0.908-0.302,1.267,0.243l-0.346,0.249c-0.202-0.287-0.427-0.411-0.74-0.185
				c-0.199,0.143-0.329,0.389-0.126,0.67c0.412,0.573,1.521-0.349,2.113,0.477c0.394,0.548,0.143,0.998-0.287,1.306
				c-0.762,0.558-1.184-0.03-1.355-0.284L21.364,15.494z"/>
			<path fill="#FFFFFF" stroke="#FFFFFF" stroke-width="0.2" stroke-miterlimit="3.8637" d="M23.627,11.365l0.181,0.307
				l-0.729,0.427l1.44,2.463l-0.353,0.206l-1.44-2.463l-0.729,0.427l-0.18-0.307L23.627,11.365z"/>
			<path fill="#FFFFFF" stroke="#FFFFFF" stroke-width="0.2" stroke-miterlimit="3.8637" d="M25.631,13.947l-1.371-2.904
				l1.496-0.705l0.151,0.322l-1.125,0.53l0.441,0.934l1.045-0.495l0.152,0.322l-1.046,0.494l0.475,1.005l1.15-0.544l0.151,0.321
				L25.631,13.947z"/>
			<path fill="#FFFFFF" stroke="#FFFFFF" stroke-width="0.2" stroke-miterlimit="3.8637" d="M28,12.878L27.638,13l-1.02-3.045
				l0.628-0.21l1.623,2.3l0.009-0.003L28.8,9.227l0.64-0.215l1.019,3.045l-0.388,0.129l-0.906-2.708l-0.007,0.003l0.052,2.993
				l-0.367,0.122l-1.741-2.428l-0.009,0.003L28,12.878z"/>
			<path fill="#FFFFFF" stroke="#FFFFFF" stroke-width="0.2" stroke-miterlimit="3.8637" d="M33.16,9.175
				c-0.025-0.18-0.067-0.358-0.167-0.445c-0.101-0.087-0.294-0.092-0.377-0.078c-0.334,0.054-0.433,0.277-0.439,0.323
				c-0.008,0.036-0.074,0.129,0.015,0.672l0.137,0.848c0.126,0.776,0.395,0.827,0.708,0.776c0.122-0.02,0.488-0.123,0.392-0.743
				l0.417-0.068c0.18,0.997-0.526,1.111-0.732,1.146c-0.395,0.063-1.005,0.136-1.204-1.093l-0.146-0.895
				c-0.144-0.896,0.209-1.214,0.832-1.315c0.627-0.103,0.921,0.184,0.981,0.804L33.16,9.175z"/>
			<path fill="#FFFFFF" stroke="#FFFFFF" stroke-width="0.2" stroke-miterlimit="3.8637" d="M34.581,11.339l-0.224-3.202
				l1.649-0.116l0.025,0.355l-1.243,0.087l0.073,1.028l1.153-0.082l0.024,0.355l-1.153,0.082l0.078,1.109l1.269-0.09l0.024,0.355
				L34.581,11.339z"/>
			<path fill="#FFFFFF" stroke="#FFFFFF" stroke-width="0.2" stroke-miterlimit="3.8637" d="M37.214,9.743l-0.019,1.475
				l-0.407-0.006l0.039-3.206l1.105,0.013c0.568,0.007,0.764,0.409,0.759,0.809c-0.004,0.377-0.218,0.665-0.595,0.727v0.008
				c0.367,0.062,0.499,0.188,0.515,0.833c0.001,0.137,0.04,0.64,0.1,0.84l-0.426-0.004c-0.113-0.225-0.082-0.641-0.112-1.069
				c-0.027-0.391-0.341-0.412-0.479-0.414L37.214,9.743z M37.219,9.388l0.613,0.008c0.293,0.003,0.437-0.248,0.442-0.529
				c0.001-0.23-0.11-0.489-0.426-0.494L37.23,8.367L37.219,9.388z"/>
			<path fill="#FFFFFF" stroke="#FFFFFF" stroke-width="0.2" stroke-miterlimit="3.8637" d="M41.33,8.227L41.3,8.581l-0.841-0.07
				l-0.24,2.842l-0.407-0.035l0.24-2.842L39.21,8.405l0.03-0.354L41.33,8.227z"/>
			<path fill="#FFFFFF" stroke="#FFFFFF" stroke-width="0.2" stroke-miterlimit="3.8637" d="M41.946,11.559L41.54,11.5l0.451-3.176
				l0.404,0.057L41.946,11.559z"/>
			<path fill="#FFFFFF" stroke="#FFFFFF" stroke-width="0.2" stroke-miterlimit="3.8637" d="M42.667,11.667l0.625-3.147l1.562,0.312
				l-0.069,0.348l-1.161-0.231L43.423,9.96l1.099,0.219l-0.069,0.349l-1.098-0.22l-0.286,1.438L42.667,11.667z"/>
			<path fill="#FFFFFF" stroke="#FFFFFF" stroke-width="0.2" stroke-miterlimit="3.8637" d="M45.081,12.208l-0.395-0.104
				l0.812-3.103l0.396,0.104L45.081,12.208z"/>
			<path fill="#FFFFFF" stroke="#FFFFFF" stroke-width="0.2" stroke-miterlimit="3.8637" d="M47.915,10.659
				c0.062-0.17,0.108-0.347,0.062-0.472c-0.047-0.124-0.217-0.218-0.298-0.245c-0.319-0.109-0.511,0.041-0.538,0.08
				c-0.024,0.028-0.126,0.078-0.304,0.601l-0.275,0.812c-0.253,0.746-0.039,0.917,0.26,1.02c0.118,0.039,0.49,0.119,0.696-0.474
				l0.4,0.137c-0.31,0.965-0.988,0.735-1.186,0.667c-0.379-0.129-0.952-0.352-0.55-1.53l0.292-0.858
				c0.292-0.86,0.753-0.976,1.352-0.771c0.603,0.204,0.727,0.594,0.49,1.171L47.915,10.659z"/>
			<path fill="#FFFFFF" stroke="#FFFFFF" stroke-width="0.2" stroke-miterlimit="3.8637" d="M50.165,10.622l0.472,0.218
				l-0.399,3.351L49.824,14l0.109-0.792l-1.124-0.52l-0.54,0.594l-0.375-0.173L50.165,10.622z M50.232,11.07l-0.007-0.004
				l-1.174,1.342l0.931,0.432L50.232,11.07z"/>
			<path fill="#FFFFFF" stroke="#FFFFFF" stroke-width="0.2" stroke-miterlimit="3.8637" d="M53.467,12.379l-0.178,0.309
				l-0.73-0.422l-1.428,2.468l-0.353-0.205l1.428-2.468l-0.73-0.422l0.177-0.308L53.467,12.379z"/>
			<path fill="#FFFFFF" stroke="#FFFFFF" stroke-width="0.2" stroke-miterlimit="3.8637" d="M52.596,15.673l-0.337-0.229
				l1.811-2.649l0.336,0.231L52.596,15.673z"/>
			<path fill="#FFFFFF" stroke="#FFFFFF" stroke-width="0.2" stroke-miterlimit="3.8637" d="M53.963,15.19l0.666-0.814
				c0.406-0.495,0.918-0.603,1.445-0.171c0.526,0.43,0.521,0.954,0.115,1.449l-0.666,0.814c-0.563,0.688-1.04,0.751-1.566,0.32
				C53.431,16.358,53.399,15.879,53.963,15.19z M55.188,16.217l0.687-0.839c0.426-0.519,0.081-0.828-0.018-0.909
				c-0.099-0.083-0.472-0.358-0.896,0.161l-0.687,0.839c-0.445,0.543-0.398,0.81-0.101,1.055
				C54.473,16.769,54.743,16.761,55.188,16.217z"/>
			<path fill="#FFFFFF" stroke="#FFFFFF" stroke-width="0.2" stroke-miterlimit="3.8637" d="M59.161,17.244l-2.321,2.217
				l-0.386-0.404l1.137-2.839l-0.006-0.006l-2.013,1.923l-0.25-0.263l2.319-2.217l0.4,0.417l-1.123,2.801l0.006,0.006l1.985-1.897
				L59.161,17.244z"/>
		</g>
	</g>
	<g>
		<rect x="80.053" y="6.824" fill="none" stroke="#000000" stroke-width="1.4" width="48.105" height="61.985"/>
		<g>
			<circle cx="98.415" cy="14.02" r="0.537"/>
			<circle cx="99.837" cy="13.885" r="0.536"/>
			<circle cx="101.154" cy="14.276" r="0.537"/>
			<circle cx="102.433" cy="14.69" r="0.537"/>
			<circle cx="97.281" cy="14.607" r="0.537"/>
			<circle cx="96.354" cy="15.575" r="0.537"/>
			<circle cx="95.879" cy="16.75" r="0.536"/>
			<circle cx="95.817" cy="18.069" r="0.537"/>
			<circle cx="96.188" cy="19.326" r="0.537"/>
			<path fill="none" stroke="#000000" stroke-width="1.0029" d="M103.258,15.637c-1.918-0.164-2.247-0.928-3.896-0.988
				c-1.225-0.046-3.769,1.544-2.308,4.574"/>
			<path d="M96.725,19.079l-0.618,1.154l1.482,3.73l-0.245,0.576l0.577,0.268l0.225,0.558c0,0,2.381-1.08,6.071-1.059V9.64h-0.671
				c0,0,0.392,0.35,0.392,0.908c0,0-0.442,0.001-0.816-0.329v1.291c0.31-0.259,0.795-0.326,0.795-0.326s-0.014,0.775-0.339,1.06
				c-0.251,0.219-0.718,0.509-0.718,1.245c0,0.731,0.502,1.127,0.718,1.189l-0.443,0.043v3.617h-0.566v0.299
				c0,0,1.029,0.144,1.164,1.392c-0.989,0.041-1.299-1.123-1.299-1.123h-0.329v3.224h0.278c0,0,0.206-1.142,1.328-1.142
				c0,0-0.087,1.35-1.492,1.41c-1.067,0.046-1.455-0.988-1.5-1.127c-0.047-0.14-0.099-0.508,0.174-0.567
				c0.274-0.059,0.406,0.193,0.205,0.559c0,0,0.919-0.193,0.779-0.909c-0.142-0.733-1.019-0.706-1.375-0.367
				c0,0-0.201-1.267-0.942-1.584l-0.013,0.001c-0.506,0.628-0.088,1.843-0.088,1.843c-0.474-0.134-1.262,0.254-1.042,0.968
				c0.214,0.697,1.06,0.401,1.06,0.401c-0.349-0.229-0.297-0.493-0.026-0.555c0.279-0.062,0.433,0.25,0.458,0.394
				c0.022,0.144,0.191,0.927-0.806,1.321c0,0-1.035,0.465-1.614-0.896c0,0,0.487-0.216,1.109,0.797l0.204-0.069l-1.213-3.038
				l-0.224,0.084c0,0,0.379,1.229-0.162,1.491c0,0-0.354-1.031,0.233-1.897c0,0-0.118-0.126-0.285-0.575l-0.451,0.371"/>
			<circle cx="110.015" cy="14.02" r="0.537"/>
			<circle cx="108.593" cy="13.885" r="0.536"/>
			<circle cx="107.273" cy="14.276" r="0.537"/>
			<circle cx="105.996" cy="14.69" r="0.537"/>
			<circle cx="111.148" cy="14.607" r="0.537"/>
			<circle cx="112.074" cy="15.575" r="0.537"/>
			<circle cx="112.549" cy="16.75" r="0.536"/>
			<circle cx="112.612" cy="18.069" r="0.537"/>
			<circle cx="112.241" cy="19.326" r="0.537"/>
			<path fill="none" stroke="#000000" stroke-width="1.0029" d="M105.171,15.637c1.917-0.164,2.247-0.928,3.896-0.988
				c1.225-0.046,3.77,1.544,2.307,4.574"/>
			<path d="M111.704,19.079l0.617,1.154l-1.482,3.73l0.247,0.576l-0.577,0.268l-0.228,0.558c0,0-2.379-1.08-6.068-1.059V9.64h0.67
				c0,0-0.391,0.35-0.391,0.908c0,0,0.441,0.001,0.816-0.329v1.291c-0.31-0.259-0.795-0.326-0.795-0.326s0.013,0.775,0.337,1.06
				c0.253,0.219,0.721,0.509,0.721,1.245c0,0.731-0.504,1.127-0.721,1.189l0.443,0.043v3.617h0.567v0.299
				c0,0-1.03,0.144-1.163,1.392c0.988,0.041,1.298-1.123,1.298-1.123h0.33v3.224h-0.278c0,0-0.206-1.142-1.328-1.142
				c0,0,0.088,1.35,1.493,1.41c1.065,0.046,1.452-0.988,1.499-1.127c0.045-0.14,0.097-0.508-0.177-0.567
				c-0.272-0.059-0.404,0.193-0.202,0.559c0,0-0.921-0.193-0.78-0.909c0.141-0.733,1.019-0.706,1.375-0.367
				c0,0,0.2-1.267,0.942-1.584l0.012,0.001c0.507,0.628,0.089,1.843,0.089,1.843c0.474-0.134,1.261,0.254,1.042,0.968
				c-0.213,0.697-1.06,0.401-1.06,0.401c0.349-0.229,0.299-0.493,0.027-0.555c-0.279-0.062-0.434,0.25-0.457,0.394
				c-0.024,0.144-0.193,0.927,0.804,1.321c0,0,1.036,0.465,1.615-0.896c0,0-0.487-0.216-1.11,0.797l-0.204-0.069l1.213-3.038
				l0.224,0.084c0,0-0.378,1.229,0.163,1.491c0,0,0.354-1.031-0.233-1.897c0,0,0.117-0.126,0.284-0.575l0.453,0.371"/>
			
				<rect x="97.737" y="24.049" transform="matrix(-0.3846 0.9231 -0.9231 -0.3846 158.0988 -56.8064)" fill="#FFFFFF" width="0.495" height="0.494"/>
			<path fill="#FFFFFF" d="M101.369,23.931c0.219-0.012,0.342-0.143,0.342-0.317s-0.142-0.315-0.316-0.315
				c-0.178-0.012-0.812,0.084-1.036,0.123c-0.192,0.041-0.316,0.142-0.316,0.316s0.155,0.349,0.34,0.317
				C100.582,24.015,101.097,23.943,101.369,23.931z"/>
			
				<rect x="110.293" y="24.048" transform="matrix(0.388 0.9217 -0.9217 0.388 90.0475 -87.012)" fill="#FFFFFF" width="0.496" height="0.496"/>
			<path fill="#FFFFFF" d="M107.158,23.931c-0.219-0.012-0.345-0.143-0.345-0.317s0.143-0.315,0.317-0.315
				c0.178-0.012,0.812,0.084,1.036,0.123c0.194,0.041,0.315,0.142,0.315,0.316s-0.152,0.349-0.338,0.317
				C107.943,24.015,107.429,23.943,107.158,23.931z"/>
			
				<rect x="103.815" y="23.032" transform="matrix(-0.7083 0.7059 -0.7059 -0.7083 194.5984 -33.5256)" fill="#FFFFFF" width="0.822" height="0.823"/>
			<circle fill="#FFFFFF" cx="104.213" cy="14.836" r="0.31"/>
			<circle fill="#FFFFFF" cx="104.213" cy="15.592" r="0.31"/>
			<circle fill="#FFFFFF" cx="104.213" cy="16.347" r="0.31"/>
			<circle fill="#FFFFFF" cx="104.213" cy="17.102" r="0.31"/>
			<circle fill="#FFFFFF" cx="104.213" cy="17.859" r="0.31"/>
			<rect x="103.529" y="14.816" fill="#FFFFFF" width="0.086" height="3.531"/>
			<rect x="104.768" y="14.816" fill="#FFFFFF" width="0.083" height="3.531"/>
			<path fill="#FFFFFF" d="M104.219,12.381h0.178v0.844c0,0,0.703,0.069,0.919,0.168v0.333c0,0-0.726-0.114-1.082-0.114h0.008
				c-0.354,0-1.127,0.114-1.127,0.114v-0.333c0.216-0.099,0.918-0.168,0.918-0.168v-0.844h0.179"/>
		</g>
		<g>
			<path d="M86.97,58.766c-0.108,0.791-0.155,1.588-0.209,2.379c-0.083-0.015-0.168-0.026-0.246-0.026
				c-0.084,0-0.162,0.012-0.247,0.026c0.221-1.205,0.395-2.412,0.542-3.616c0.071,0.019,0.141,0.026,0.212,0.026
				c0.069,0,0.144-0.008,0.212-0.026c0.382,0.836,0.828,1.768,1.209,2.507c0.415-0.782,0.845-1.671,1.223-2.507
				c0.072,0.019,0.152,0.026,0.226,0.026c0.072,0,0.146-0.008,0.22-0.026c0.135,1.204,0.32,2.876,0.45,3.616
				c-0.142-0.015-0.284-0.026-0.425-0.026c-0.142,0-0.288,0.012-0.434,0.026c-0.037-0.728-0.127-1.621-0.209-2.432h-0.012
				c-0.394,0.811-0.781,1.62-1.159,2.432c-0.031-0.006-0.069-0.01-0.099-0.01c-0.031,0-0.067,0.004-0.101,0.01
				c-0.371-0.791-0.748-1.588-1.142-2.379H86.97z"/>
			<path d="M94.09,61.145c-0.168-0.01-0.313-0.026-0.461-0.026s-0.3,0.017-0.446,0.026c-0.11-0.354-0.23-0.72-0.36-1.074
				c-0.226-0.006-0.447-0.011-0.671-0.011c-0.185,0-0.362,0.005-0.546,0.011c-0.142,0.354-0.257,0.714-0.356,1.074
				c-0.084-0.01-0.162-0.026-0.246-0.026s-0.163,0.017-0.262,0.026c0.256-0.581,1.043-2.446,1.492-3.643
				c0.069,0.012,0.132,0.026,0.2,0.026s0.132-0.015,0.198-0.026C93.079,58.698,93.692,60.29,94.09,61.145z M92.701,59.763
				c-0.151-0.425-0.299-0.84-0.468-1.248c-0.177,0.408-0.339,0.823-0.491,1.248H92.701z"/>
			<path d="M94.573,57.528c0.079,0.019,0.158,0.026,0.235,0.026c0.079,0,0.158-0.008,0.236-0.026
				c0.757,0.836,1.505,1.661,2.274,2.495c0-0.834,0-2.259-0.036-2.495c0.077,0.019,0.156,0.026,0.235,0.026s0.158-0.008,0.236-0.026
				c-0.084,1.526-0.084,2.222-0.084,3.616c-0.073-0.015-0.142-0.026-0.215-0.026c-0.074,0-0.141,0.012-0.204,0.026
				c-0.719-0.848-1.484-1.698-2.292-2.546c-0.01,0.394-0.01,0.825-0.01,1.221c0,0.838,0.017,1.134,0.031,1.325
				c-0.082-0.015-0.167-0.026-0.244-0.026c-0.081,0-0.164,0.012-0.243,0.026c0.028-0.15,0.105-1.502,0.105-2.572
				C94.6,58.099,94.579,57.781,94.573,57.528z"/>
			<path d="M101.414,61.145c-0.168-0.01-0.314-0.026-0.462-0.026c-0.146,0-0.298,0.017-0.444,0.026
				c-0.11-0.354-0.23-0.72-0.363-1.074c-0.224-0.006-0.444-0.011-0.67-0.011c-0.184,0-0.36,0.005-0.544,0.011
				c-0.143,0.354-0.257,0.714-0.356,1.074c-0.084-0.01-0.163-0.026-0.247-0.026s-0.162,0.017-0.263,0.026
				c0.258-0.581,1.044-2.446,1.494-3.643c0.068,0.012,0.13,0.026,0.198,0.026c0.069,0,0.133-0.015,0.2-0.026
				C100.401,58.698,101.015,60.29,101.414,61.145z M100.024,59.763c-0.152-0.425-0.298-0.84-0.466-1.248
				c-0.179,0.408-0.342,0.823-0.493,1.248H100.024z"/>
			<path d="M104.606,58.309c-0.22-0.315-0.555-0.521-1.033-0.521c-0.649,0-1.319,0.538-1.319,1.637c0,0.836,0.466,1.466,1.272,1.466
				c0.178,0,0.487-0.041,0.572-0.098c0.014-0.084,0.014-0.212,0.014-0.367c0-0.564-0.029-0.799-0.035-0.901
				c0.067,0.013,0.172,0.027,0.388,0.027c0.251,0,0.356-0.015,0.426-0.027c-0.027,0.112-0.043,0.547-0.043,0.881
				c0,0.223,0.005,0.5,0.016,0.577c-0.456,0.133-0.938,0.232-1.399,0.232c-1.205,0-2.069-0.689-2.069-1.755
				c0-1.334,0.938-1.998,2.169-1.998c0.53,0,0.887,0.114,1.264,0.313c-0.059,0.18-0.116,0.357-0.147,0.534H104.606z"/>
			<path d="M105.566,58.979c0-0.585-0.009-0.988-0.041-1.451c0.309,0.006,0.624,0.026,0.933,0.026c0.514,0,0.954-0.008,1.096-0.026
				c-0.011,0.062-0.021,0.126-0.021,0.22c0,0.11,0.011,0.159,0.021,0.236c-0.398-0.026-1.026-0.062-1.185-0.062
				c-0.025,0.381-0.025,0.76-0.025,1.142c0.455-0.009,0.79-0.021,1.188-0.041c-0.021,0.12-0.025,0.167-0.025,0.234
				c0,0.06,0.011,0.104,0.025,0.216c-0.398-0.03-0.791-0.049-1.188-0.049c0,0.221-0.006,0.448-0.006,0.675
				c0,0.219,0.006,0.444,0.017,0.654c0.393,0,0.797-0.024,1.199-0.069c-0.011,0.073-0.021,0.127-0.021,0.234
				c0,0.112,0.011,0.163,0.021,0.227c-0.189-0.006-0.436-0.026-0.917-0.026c-0.855,0-0.996,0.017-1.111,0.026
				c0.032-0.461,0.041-0.866,0.041-1.451V58.979z"/>
			<path d="M108.577,58.766c-0.109,0.791-0.158,1.588-0.211,2.379c-0.082-0.015-0.166-0.026-0.245-0.026
				c-0.083,0-0.163,0.012-0.246,0.026c0.221-1.205,0.393-2.412,0.54-3.616c0.073,0.019,0.141,0.026,0.215,0.026
				c0.067,0,0.142-0.008,0.209-0.026c0.384,0.836,0.828,1.768,1.211,2.507c0.414-0.782,0.844-1.671,1.221-2.507
				c0.074,0.019,0.151,0.026,0.227,0.026c0.073,0,0.146-0.008,0.219-0.026c0.137,1.204,0.32,2.876,0.45,3.616
				c-0.141-0.015-0.282-0.026-0.424-0.026c-0.141,0-0.288,0.012-0.436,0.026c-0.036-0.728-0.125-1.621-0.209-2.432h-0.01
				c-0.393,0.811-0.782,1.62-1.159,2.432c-0.03-0.006-0.068-0.01-0.1-0.01s-0.067,0.004-0.099,0.01
				c-0.373-0.791-0.75-1.588-1.143-2.379H108.577z"/>
			<path d="M112.692,58.979c0-0.585-0.01-0.988-0.042-1.451c0.31,0.006,0.624,0.026,0.934,0.026c0.513,0,0.953-0.008,1.094-0.026
				c-0.008,0.062-0.02,0.126-0.02,0.22c0,0.11,0.012,0.159,0.02,0.236c-0.397-0.026-1.026-0.062-1.185-0.062
				c-0.025,0.381-0.025,0.76-0.025,1.142c0.456-0.009,0.793-0.021,1.19-0.041c-0.022,0.12-0.026,0.167-0.026,0.234
				c0,0.06,0.011,0.104,0.026,0.216c-0.397-0.03-0.792-0.049-1.19-0.049c0,0.221-0.004,0.448-0.004,0.675
				c0,0.219,0.004,0.444,0.016,0.654c0.394,0,0.796-0.024,1.198-0.069c-0.008,0.073-0.02,0.127-0.02,0.234
				c0,0.112,0.012,0.163,0.02,0.227c-0.188-0.006-0.434-0.026-0.916-0.026c-0.854,0-0.995,0.017-1.111,0.026
				c0.032-0.461,0.042-0.866,0.042-1.451V58.979z"/>
			<path d="M115.304,57.528c0.078,0.019,0.158,0.026,0.235,0.026c0.079,0,0.158-0.008,0.236-0.026
				c0.755,0.836,1.505,1.661,2.274,2.495c0-0.834,0-2.259-0.035-2.495c0.077,0.019,0.157,0.026,0.235,0.026s0.157-0.008,0.236-0.026
				c-0.085,1.526-0.085,2.222-0.085,3.616c-0.073-0.015-0.142-0.026-0.215-0.026s-0.141,0.012-0.204,0.026
				c-0.719-0.848-1.484-1.698-2.291-2.546c-0.011,0.394-0.011,0.825-0.011,1.221c0,0.838,0.017,1.134,0.032,1.325
				c-0.085-0.015-0.168-0.026-0.247-0.026c-0.078,0-0.162,0.012-0.24,0.026c0.025-0.15,0.104-1.502,0.104-2.572
				C115.33,58.099,115.31,57.781,115.304,57.528z"/>
			<path d="M119.902,58.382c0-0.199,0-0.389-0.016-0.46c-0.204,0-0.646,0.032-0.959,0.069c0.015-0.082,0.025-0.153,0.025-0.232
				c0-0.078-0.011-0.153-0.025-0.23c0.477,0.019,0.712,0.026,1.361,0.026c0.651,0,0.887-0.008,1.332-0.026
				c-0.015,0.077-0.027,0.152-0.027,0.23c0,0.079,0.013,0.15,0.027,0.232c-0.282-0.037-0.724-0.069-0.934-0.069
				c-0.009,0.071-0.009,0.261-0.009,0.46v1.312c0,0.585,0.009,0.99,0.041,1.451c-0.114-0.01-0.256-0.026-0.431-0.026
				c-0.172,0-0.313,0.017-0.428,0.026c0.029-0.461,0.041-0.866,0.041-1.451V58.382z"/>
			<path d="M95.742,62.989c-0.11-0.297-0.316-0.45-0.634-0.45c-0.32,0-0.547,0.222-0.547,0.473c0,0.775,1.595,0.583,1.595,1.77
				c0,0.703-0.556,1.185-1.39,1.185c-0.377,0-0.691-0.108-0.843-0.224c0.067-0.241,0.115-0.429,0.151-0.665h0.1
				c0.057,0.304,0.298,0.564,0.723,0.564c0.41,0,0.613-0.24,0.613-0.536c0-0.789-1.562-0.579-1.562-1.77
				c0-0.726,0.556-1.121,1.18-1.121c0.378,0,0.66,0.1,0.86,0.255c-0.063,0.165-0.102,0.291-0.169,0.52H95.742z"/>
			<path d="M98.123,63.856c0.282-0.4,0.561-1.059,0.791-1.572c0.078,0.008,0.157,0.024,0.239,0.024c0.085,0,0.164-0.017,0.253-0.024
				c-0.231,0.394-0.76,1.346-1.096,2.004c0,0.169-0.01,0.343-0.01,0.516c0,0.345,0.004,0.703,0.052,1.097
				c-0.146-0.012-0.299-0.028-0.445-0.028s-0.298,0.017-0.445,0.028c0.017-0.336,0.063-0.688,0.063-1.013
				c0-0.163-0.005-0.324-0.011-0.487c-0.362-0.697-0.959-1.818-1.121-2.116c0.156,0.008,0.313,0.024,0.472,0.024
				c0.156,0,0.308-0.017,0.466-0.024c0.241,0.516,0.634,1.331,0.78,1.572H98.123z"/>
			<path d="M101.408,62.989c-0.108-0.297-0.313-0.45-0.632-0.45c-0.32,0-0.546,0.222-0.546,0.473c0,0.775,1.593,0.583,1.593,1.77
				c0,0.703-0.556,1.185-1.388,1.185c-0.378,0-0.691-0.108-0.846-0.224c0.069-0.241,0.116-0.429,0.154-0.665h0.099
				c0.058,0.304,0.299,0.564,0.723,0.564c0.409,0,0.613-0.24,0.613-0.536c0-0.789-1.562-0.579-1.562-1.77
				c0-0.726,0.556-1.121,1.179-1.121c0.377,0,0.661,0.1,0.859,0.255c-0.063,0.165-0.099,0.291-0.166,0.52H101.408z"/>
			<path d="M103.025,63.139c0-0.2,0-0.39-0.016-0.461c-0.205,0-0.646,0.03-0.959,0.065c0.016-0.078,0.025-0.149,0.025-0.229
				c0-0.082-0.01-0.153-0.025-0.23c0.477,0.015,0.713,0.024,1.361,0.024c0.651,0,0.886-0.01,1.333-0.024
				c-0.018,0.077-0.028,0.148-0.028,0.23c0,0.079,0.011,0.15,0.028,0.229c-0.284-0.035-0.724-0.065-0.934-0.065
				c-0.011,0.071-0.011,0.261-0.011,0.461v1.309c0,0.587,0.011,0.99,0.042,1.453c-0.116-0.012-0.257-0.028-0.431-0.028
				c-0.172,0-0.313,0.017-0.43,0.028c0.031-0.463,0.043-0.866,0.043-1.453V63.139z"/>
			<path d="M105.195,63.735c0-0.589-0.01-0.992-0.041-1.451c0.309,0.006,0.623,0.024,0.932,0.024c0.515,0,0.955-0.01,1.096-0.024
				c-0.01,0.063-0.021,0.126-0.021,0.218c0,0.108,0.011,0.157,0.021,0.234c-0.397-0.022-1.026-0.059-1.185-0.059
				c-0.025,0.381-0.025,0.758-0.025,1.14c0.456-0.011,0.791-0.019,1.189-0.039c-0.021,0.12-0.027,0.165-0.027,0.234
				c0,0.058,0.012,0.104,0.027,0.212c-0.398-0.028-0.791-0.045-1.189-0.045c0,0.221-0.005,0.445-0.005,0.671
				c0,0.221,0.005,0.444,0.015,0.656c0.395,0,0.797-0.022,1.2-0.069c-0.01,0.076-0.021,0.127-0.021,0.237
				c0,0.107,0.011,0.163,0.021,0.226c-0.188-0.006-0.435-0.028-0.916-0.028c-0.855,0-0.997,0.017-1.111,0.028
				c0.031-0.463,0.041-0.866,0.041-1.453V63.735z"/>
			<path d="M108.206,63.52c-0.109,0.791-0.158,1.586-0.211,2.381c-0.083-0.016-0.166-0.028-0.246-0.028
				c-0.083,0-0.162,0.013-0.245,0.028c0.22-1.207,0.393-2.411,0.539-3.616c0.072,0.015,0.142,0.024,0.216,0.024
				c0.067,0,0.142-0.01,0.209-0.024c0.383,0.832,0.828,1.764,1.209,2.504c0.415-0.781,0.846-1.672,1.223-2.504
				c0.074,0.015,0.151,0.024,0.226,0.024s0.146-0.01,0.22-0.024c0.137,1.205,0.32,2.877,0.45,3.616
				c-0.141-0.016-0.282-0.028-0.424-0.028c-0.143,0-0.288,0.013-0.435,0.028c-0.037-0.728-0.126-1.62-0.209-2.432h-0.012
				c-0.394,0.812-0.78,1.62-1.159,2.432c-0.031-0.006-0.067-0.012-0.099-0.012s-0.067,0.006-0.099,0.012
				c-0.373-0.795-0.75-1.59-1.143-2.381H108.206z"/>
			<path d="M113.914,62.989c-0.11-0.297-0.313-0.45-0.634-0.45s-0.545,0.222-0.545,0.473c0,0.775,1.593,0.583,1.593,1.77
				c0,0.703-0.555,1.185-1.389,1.185c-0.378,0-0.691-0.108-0.844-0.224c0.067-0.241,0.116-0.429,0.152-0.665h0.099
				c0.06,0.304,0.3,0.564,0.724,0.564c0.41,0,0.615-0.24,0.615-0.536c0-0.789-1.564-0.579-1.564-1.77
				c0-0.726,0.557-1.121,1.181-1.121c0.377,0,0.659,0.1,0.859,0.255c-0.063,0.165-0.101,0.291-0.168,0.52H113.914z"/>
		</g>
		<g>
			<path d="M89.636,53.054c0-1.04,0.02-1.562,0.02-2.255c0-1.021-0.02-1.668-0.04-1.986c0.261,0.029,0.53,0.047,0.791,0.047
				c0.26,0,0.529-0.018,0.791-0.047c-0.126,1.252-0.136,2.255-0.136,3.374c0,2.353,0.675,2.738,1.929,2.738
				c1.542,0,1.647-1.668,1.647-3.462c0-0.887-0.029-1.763-0.077-2.65c0.164,0.029,0.327,0.047,0.491,0.047
				c0.165,0,0.319-0.018,0.483-0.047c-0.057,0.569-0.125,1.947-0.125,3.617c0,2.236-0.974,3.159-2.844,3.159
				C90.918,55.589,89.636,54.867,89.636,53.054z"/>
			<path d="M100.337,52.438c0,1.389,0,2.42,0.077,3.027c-0.212-0.021-0.473-0.049-0.79-0.049c-0.318,0-0.579,0.028-0.791,0.049
				c0.058-0.848,0.076-1.59,0.076-2.671v-1.311c0-1.08-0.019-1.822-0.076-2.671c0.212,0.019,0.473,0.047,0.791,0.047
				c0.317,0,0.578-0.028,0.79-0.047c-0.077,0.51-0.077,1.831-0.077,3.074c0.868-1.021,2.121-2.582,2.46-3.074
				c0.182,0.019,0.355,0.047,0.539,0.047c0.173,0,0.355-0.028,0.577-0.047c-0.434,0.435-1.985,2.151-2.486,2.777
				c0.829,1.254,2.11,3.19,2.632,3.875c-0.375-0.021-0.656-0.049-0.936-0.049c-0.28,0-0.559,0.028-0.838,0.049
				c-0.637-1.011-1.293-2.024-1.929-3.027H100.337z"/>
			<path d="M112.197,55.465c-0.309-0.021-0.579-0.049-0.849-0.049c-0.271,0-0.55,0.028-0.82,0.049
				c-0.203-0.656-0.424-1.321-0.665-1.978c-0.414-0.008-0.82-0.019-1.233-0.019c-0.338,0-0.666,0.011-1.004,0.019
				c-0.261,0.656-0.473,1.312-0.655,1.978c-0.153-0.021-0.3-0.049-0.452-0.049c-0.155,0-0.3,0.028-0.483,0.049
				c0.474-1.07,1.918-4.501,2.748-6.701c0.126,0.021,0.24,0.049,0.367,0.049c0.124,0,0.24-0.028,0.367-0.049
				C110.336,50.964,111.463,53.894,112.197,55.465z M109.642,52.921c-0.279-0.783-0.551-1.546-0.858-2.296
				c-0.328,0.75-0.627,1.513-0.906,2.296H109.642z"/>
			<path d="M117.905,50.113c-0.204-0.548-0.58-0.827-1.166-0.827c-0.59,0-1.004,0.403-1.004,0.866c0,1.427,2.932,1.07,2.932,3.26
				c0,1.29-1.022,2.177-2.556,2.177c-0.693,0-1.272-0.201-1.552-0.413c0.125-0.444,0.212-0.789,0.279-1.226h0.184
				c0.105,0.561,0.549,1.042,1.33,1.042c0.752,0,1.128-0.442,1.128-0.984c0-1.454-2.873-1.068-2.873-3.258
				c0-1.332,1.022-2.063,2.169-2.063c0.694,0,1.216,0.184,1.581,0.473c-0.115,0.3-0.184,0.53-0.309,0.954H117.905z"/>
		</g>
		<polygon points="96.391,29.408 96.391,39.376 103.175,46.662 116.473,26.935 116.473,19.447 103.212,38.269 		"/>
	</g>
	<g>
		<path d="M101.875,71.119c0.919,0,1.176,1.313,1.176,1.97c0,0.658-0.257,1.957-1.176,1.957c-0.915,0-1.174-1.299-1.174-1.957
			C100.701,72.433,100.96,71.119,101.875,71.119z M101.875,75.578c1.318,0,1.787-1.511,1.787-2.483c0-0.979-0.462-2.48-1.787-2.48
			s-1.785,1.502-1.785,2.48C100.09,74.067,100.559,75.578,101.875,75.578z"/>
		<path d="M97.342,71.119c0.918,0,1.175,1.313,1.175,1.97c0,0.658-0.257,1.957-1.175,1.957c-0.916,0-1.175-1.299-1.175-1.957
			C96.167,72.433,96.426,71.119,97.342,71.119z M97.342,75.578c1.319,0,1.786-1.511,1.786-2.483c0-0.979-0.46-2.48-1.786-2.48
			c-1.324,0-1.786,1.502-1.786,2.48C95.556,74.067,96.024,75.578,97.342,75.578z"/>
		<path d="M106.408,71.119c0.917,0,1.176,1.313,1.176,1.97c0,0.658-0.259,1.957-1.176,1.957c-0.916,0-1.175-1.299-1.175-1.957
			C105.233,72.433,105.492,71.119,106.408,71.119z M106.408,75.578c1.318,0,1.786-1.511,1.786-2.483c0-0.979-0.462-2.48-1.786-2.48
			s-1.786,1.502-1.786,2.48C104.622,74.067,105.091,75.578,106.408,75.578z"/>
		<path d="M110.055,74.326c0.014,0.489,0.455,0.686,0.831,0.686c0.878,0,0.994-0.8,0.994-1.115c0-0.659-0.37-1.046-0.949-1.046
			c-0.289,0-0.522,0.107-0.673,0.255c-0.153,0.145-0.197,0.291-0.233,0.407h-0.658l0.13-2.893h2.818v0.568h-2.195l-0.095,1.572
			c0.152-0.146,0.473-0.448,1.059-0.448c1.007,0,1.5,0.765,1.5,1.6c0,0.952-0.696,1.676-1.79,1.676c-0.81,0-1.456-0.434-1.491-1.262
			H110.055z"/>
	</g>
</g>
</svg>
