<?xml version="1.0" encoding="utf-8"?>
<svg version="1.1" xmlns="http://www.w3.org/2000/svg" xmlns:xlink="http://www.w3.org/1999/xlink" x="0px" y="0px" width="60" height="60" viewBox="0 0 60 60" enable-background="new 0 0 60 60" xml:space="preserve">
  <rect x="0" y="0" width="60" height="60" fill="#19CF86" />
  <path transform="translate(0,-6)" fill="#FFF" d="M39.63,25.482c-1.393-0.901-3.248-0.501-4.149,0.889l-8.984,13.885l-3.376-3.376c-1.171-1.172-3.071-1.172-4.242,0c-1.172,1.171-1.172,3.071,0,4.242l6,6C25.464,47.708,26.232,48,27,48c0.781,0,1.64-0.328,2.121-0.879c0.422-0.483,1.128-1.636,1.956-2.902c3.046-4.656,9.441-14.589,9.441-14.589C41.419,28.239,41.021,26.382,39.63,25.482z"/>
</svg>
