<?xml version="1.0" encoding="UTF-8" standalone="no"?>
<svg width="26px" height="26px" viewBox="0 0 26 26" version="1.1" xmlns="http://www.w3.org/2000/svg" xmlns:xlink="http://www.w3.org/1999/xlink">
    <!-- Generator: Sketch 3.6.1 (26313) - http://www.bohemiancoding.com/sketch -->
    <title>verified</title>
    <desc>Created with Sketch.</desc>
    <defs></defs>
    <g id="Page-3" stroke="none" stroke-width="1" fill="none" fill-rule="evenodd">
        <g id="verified" transform="translate(-1.000000, -4.000000)">
            <g id="bounds" fill="#59ADEB" opacity="0">
                <rect id="Rectangle-path" x="0" y="0" width="28" height="33.6"></rect>
            </g>
            <g id="icon" transform="translate(1.400000, 4.200000)">
                <path d="M0.000466666667,13.2010667 C0.000466666667,14.9930667 0.9394,16.5578 2.33006667,17.3824 C2.3058,17.5854 2.29133333,17.7902667 2.29133333,17.9998 C2.29133333,20.6514 4.34093333,22.7985333 6.87306667,22.7985333 C7.43633333,22.7985333 7.97813333,22.6968 8.4756,22.5008 C9.2204,24.1005333 10.787,25.2 12.6,25.2 C14.4139333,25.2 15.9814667,24.1005333 16.7239333,22.5008 C17.2223333,22.6968 17.7618,22.7985333 18.3274,22.7985333 C20.8581333,22.7985333 22.9091333,20.6514 22.9091333,17.9998 C22.9091333,17.7902667 22.8928,17.5858667 22.869,17.3824 C24.2582667,16.5573333 25.2004667,14.9930667 25.2004667,13.2010667 C25.2004667,11.3022 24.15,9.65953333 22.6235333,8.87973333 C22.8088,8.35753333 22.9096,7.79333333 22.9096,7.20066667 C22.9096,4.5486 20.8590667,2.40193333 18.3278667,2.40193333 C17.7622667,2.40193333 17.2228,2.50273333 16.7244,2.7006 C15.9814667,1.09993333 14.4139333,0 12.6,0 C10.787,0 9.2204,1.09993333 8.47606667,2.7006 C7.9786,2.50273333 7.43633333,2.40193333 6.87353333,2.40193333 C4.34186667,2.40193333 2.2918,4.5486 2.2918,7.20066667 C2.2918,7.79333333 2.39213333,8.35706667 2.57693333,8.87973333 C1.0514,9.65953333 0.000466666667,11.3022 0.000466666667,13.2010667 L0.000466666667,13.2010667 Z" id="Shape" fill="#59ADEB"></path>
                <path d="M6.46146667,13.9673333 L9.5088,16.9997333 C9.76313333,17.2526667 10.0958667,17.3791333 10.4281333,17.3791333 C10.7627333,17.3791333 11.0973333,17.2508 11.3521333,16.9950667 C11.5014667,16.8448 18.2952,10.0548 18.2952,10.0548 C18.8043333,9.54566667 18.8043333,8.7206 18.2956667,8.21146667 C17.7865333,7.7028 16.9614667,7.70233333 16.4523333,8.211 L10.4258,14.2342667 L8.30013333,12.1193333 C7.79006667,11.6120667 6.96453333,11.6134667 6.4568,12.124 C5.94906667,12.6340667 5.95093333,13.4596 6.46146667,13.9673333 L6.46146667,13.9673333 Z" id="Shape" fill="#FFFFFF"></path>
            </g>
        </g>
    </g>
</svg>