<?xml version="1.0" encoding="utf-8"?>
<!-- Generator: Adobe Illustrator 16.0.0, SVG Export Plug-In . SVG Version: 6.00 Build 0)  -->
<!DOCTYPE svg PUBLIC "-//W3C//DTD SVG 1.1//EN" "http://www.w3.org/Graphics/SVG/1.1/DTD/svg11.dtd">
<svg version="1.1" id="Layer_1" xmlns="http://www.w3.org/2000/svg" xmlns:xlink="http://www.w3.org/1999/xlink" x="0px" y="0px"
	 width="22px" height="44px" viewBox="-362.5 328.5 22 44" enable-background="new -362.5 328.5 22 44" xml:space="preserve">
<path d="M-344.566,356.124c-0.828-0.543-3.283-1.431-3.438-1.584c-0.15-0.154,0.027-1.19-0.282-1.222
	c-0.178-0.014-0.348-0.043-0.348-0.043c-0.043-0.198-0.173-1.489-0.017-1.735c0.739-1.186,0.678-2.513,0.873-2.466
	c0.321,0.074,0.649-2.257,0.521-2.376c-0.146-0.13-0.331,0.086-0.375-0.067c-0.042-0.156,0.107-2.419-0.055-3.03
	c-0.313-1.188-1.354-1.705-1.776-1.92c-0.722-0.367,1.405-1.476-0.833-1.12c-2.295,0.366-3.605,0.952-4.604,2.565
	c-0.496,0.799,0.104,3.686-0.328,3.61c-0.612-0.109-0.039,2.468,0.218,2.423c0.421-0.074,0.416,1.216,0.973,2.123
	c0.254,0.413,0.021,0.772,0.011,1.79c-0.003,0.304-0.361,0.146-0.456,0.138c-0.242-0.021,0.009,0.974-0.253,1.217
	c-0.261,0.244-3.411,1.396-3.937,1.815c-0.735,0.589-1.541,1.384-1.541,2.77c0,0.422,0,1.321,0,1.321h17.423c0,0,0-0.722,0-1.263
	C-342.788,357.686-343.785,356.63-344.566,356.124z"/>
</svg>
