<?xml version="1.0" encoding="utf-8"?>
<!-- Generator: Adobe Illustrator 16.0.0, SVG Export Plug-In . SVG Version: 6.00 Build 0)  -->
<!DOCTYPE svg PUBLIC "-//W3C//DTD SVG 1.1//EN" "http://www.w3.org/Graphics/SVG/1.1/DTD/svg11.dtd">
<svg version="1.1" id="Layer_1" xmlns="http://www.w3.org/2000/svg" xmlns:xlink="http://www.w3.org/1999/xlink" x="0px" y="0px"
	 width="20px" height="20px" viewBox="0 0 20 20" enable-background="new 0 0 20 20" xml:space="preserve">
<path d="M9.979-0.021C4.445-0.021-0.042,4.466-0.042,10c0,5.535,4.487,10.021,10.021,10.021S20,15.535,20,10
	C20,4.466,15.514-0.021,9.979-0.021z M13.926,14.211c-0.115,0.115-0.266,0.172-0.416,0.172c-0.148,0-0.299-0.057-0.414-0.172
	L10,11.115l-3.097,3.096c-0.115,0.115-0.265,0.172-0.415,0.172s-0.3-0.057-0.414-0.172c-0.229-0.229-0.229-0.6,0-0.828l3.097-3.096
	L6.084,7.201c-0.229-0.229-0.229-0.601,0-0.83c0.229-0.228,0.6-0.228,0.829,0L10,9.458l3.086-3.086c0.229-0.228,0.6-0.228,0.828,0
	c0.229,0.229,0.229,0.601,0,0.83l-3.086,3.086l3.098,3.096C14.154,13.611,14.154,13.982,13.926,14.211z"/>
</svg>
