<?xml version="1.0" encoding="utf-8"?>
<!-- Generator: Adobe Illustrator 16.0.0, SVG Export Plug-In . SVG Version: 6.00 Build 0)  -->
<!DOCTYPE svg PUBLIC "-//W3C//DTD SVG 1.1//EN" "http://www.w3.org/Graphics/SVG/1.1/DTD/svg11.dtd">
<svg version="1.1" id="Layer_1" xmlns="http://www.w3.org/2000/svg" xmlns:xlink="http://www.w3.org/1999/xlink" x="0px" y="0px"
	 width="22px" height="44px" viewBox="0 0 22 44" enable-background="new 0 0 22 44" xml:space="preserve">
<path fill="#FFFFFF" d="M17.936,27.712c-0.828-0.543-3.283-1.431-3.438-1.584c-0.15-0.154,0.025-1.19-0.283-1.222
	c-0.178-0.015-0.348-0.043-0.348-0.043c-0.043-0.198-0.174-1.489-0.018-1.735c0.74-1.187,0.678-2.513,0.873-2.466
	c0.322,0.074,0.65-2.257,0.521-2.376c-0.146-0.13-0.33,0.086-0.375-0.067c-0.041-0.156,0.107-2.419-0.055-3.03
	c-0.312-1.188-1.354-1.704-1.775-1.92c-0.723-0.366,1.404-1.476-0.834-1.12c-2.294,0.366-3.604,0.952-4.604,2.565
	c-0.496,0.799,0.104,3.687-0.328,3.61c-0.612-0.109-0.039,2.468,0.218,2.423c0.421-0.074,0.416,1.216,0.973,2.123
	c0.254,0.413,0.021,0.771,0.011,1.79c-0.003,0.304-0.361,0.146-0.456,0.138c-0.242-0.021,0.009,0.974-0.253,1.217
	c-0.261,0.244-3.411,1.396-3.937,1.815c-0.735,0.589-1.541,1.384-1.541,2.77c0,0.422,0,1.321,0,1.321h17.422c0,0,0-0.722,0-1.263
	C19.713,29.273,18.717,28.218,17.936,27.712z"/>
</svg>
