<?xml version="1.0" encoding="utf-8"?>
<!-- Generator: Adobe Illustrator 16.0.0, SVG Export Plug-In . SVG Version: 6.00 Build 0)  -->
<!DOCTYPE svg PUBLIC "-//W3C//DTD SVG 1.1//EN" "http://www.w3.org/Graphics/SVG/1.1/DTD/svg11.dtd">
<svg version="1.1" id="Layer_1" xmlns="http://www.w3.org/2000/svg" xmlns:xlink="http://www.w3.org/1999/xlink" x="0px" y="0px"
	 width="8.016px" height="9.016px" viewBox="12.5 32.5 8.016 9.016" enable-background="new 12.5 32.5 8.016 9.016"
	 xml:space="preserve">
<path fill="#76B9DF" d="M13.013,41.498c-0.085,0-0.171-0.015-0.249-0.062c-0.163-0.092-0.265-0.264-0.265-0.451v-7.971
	c0-0.188,0.102-0.359,0.257-0.445c0.163-0.092,0.358-0.092,0.521,0l6.648,3.923c0.155,0.094,0.249,0.258,0.249,0.437
	c0,0.18-0.094,0.35-0.243,0.444l-4.305,2.662c-0.154,0.094-0.358,0.094-0.521,0c-0.164-0.093-0.265-0.264-0.265-0.452v-2.164
	c0-0.279,0.233-0.513,0.521-0.513c0.28,0,0.513,0.234,0.513,0.513v1.245l2.788-1.72l-5.139-3.028v6.151l0.358-0.216
	c0.242-0.142,0.56-0.079,0.708,0.17c0.148,0.249,0.069,0.561-0.172,0.716l-1.137,0.685C13.2,41.482,13.107,41.498,13.013,41.498z"/>
<path fill="#76B9DF" d="M15.877,36.025c0,0.279-0.225,0.506-0.505,0.506s-0.507-0.226-0.507-0.506c0-0.281,0.226-0.514,0.507-0.514
	C15.652,35.511,15.877,35.745,15.877,36.025z"/>
</svg>
