<?xml version="1.0" encoding="utf-8"?>
<!-- Generator: Adobe Illustrator 16.0.0, SVG Export Plug-In . SVG Version: 6.00 Build 0)  -->
<!DOCTYPE svg PUBLIC "-//W3C//DTD SVG 1.1//EN" "http://www.w3.org/Graphics/SVG/1.1/DTD/svg11.dtd">
<svg version="1.1" id="Layer_1" xmlns="http://www.w3.org/2000/svg" xmlns:xlink="http://www.w3.org/1999/xlink" x="0px" y="0px"
	 width="32px" height="32px" viewBox="0 0 32 32" enable-background="new 0 0 32 32" xml:space="preserve">
<path d="M22.372,21.123L17.5,16.25l4.855-4.855c0.36-0.361,0.36-0.945,0-1.305s-0.943-0.36-1.304,0l-4.855,4.856L11.34,10.09
	c-0.36-0.36-0.943-0.36-1.305,0c-0.359,0.36-0.359,0.944,0,1.305l4.857,4.855l-4.873,4.873c-0.359,0.359-0.359,0.943,0,1.305
	c0.18,0.18,0.416,0.27,0.652,0.27s0.471-0.09,0.652-0.27l4.872-4.873l4.872,4.873c0.181,0.18,0.416,0.27,0.652,0.27
	s0.473-0.09,0.651-0.27C22.732,22.066,22.732,21.482,22.372,21.123z"/>
</svg>
