<?xml version="1.0" encoding="utf-8"?>
<!-- Generator: Adobe Illustrator 16.0.0, SVG Export Plug-In . SVG Version: 6.00 Build 0)  -->
<!DOCTYPE svg PUBLIC "-//W3C//DTD SVG 1.1//EN" "http://www.w3.org/Graphics/SVG/1.1/DTD/svg11.dtd">
<svg version="1.1" id="Layer_1" xmlns="http://www.w3.org/2000/svg" xmlns:xlink="http://www.w3.org/1999/xlink" x="0px" y="0px"
	 width="960px" height="560px" viewBox="0 0 960 560" enable-background="new 0 0 960 560" xml:space="preserve">
<g>
	<g>
		<path fill="#FFFFFF" d="M50.174,376.446c-2.229-1.672-5.018-2.229-9.478-2.229H25.645v21.742h15.609
			c3.902,0,7.248-1.115,9.478-2.788c2.229-1.672,3.345-4.46,3.345-8.362C53.519,380.906,52.405,378.119,50.174,376.446
			 M63.554,403.206c-5.018,3.345-11.707,5.575-20.627,5.575H25.645v26.202H8.363v-73.589h35.68c8.362,0,14.494,1.672,19.512,5.574
			s7.247,9.478,7.247,17.84S68.572,399.861,63.554,403.206"/>
		<path fill="#FFFFFF" d="M94.216,374.217v20.069h18.397c3.902,0,6.689-0.558,8.362-1.115c3.345-1.672,5.018-3.902,5.018-8.362
			s-1.673-7.247-5.018-8.92c-1.673-1.114-4.46-1.114-7.805-1.114H94.216V374.217z M129.896,363.066
			c2.787,1.115,5.574,2.788,7.805,5.018c1.673,1.673,3.345,3.902,3.902,6.133c1.115,2.229,1.673,5.018,1.673,7.805
			c0,3.345-1.115,6.689-2.788,10.592c-2.229,3.346-5.018,5.575-10.034,7.248c3.902,1.115,6.689,3.345,8.362,5.574
			c1.672,2.788,2.229,6.133,2.229,11.708v5.018c0,3.345,0,5.574,0.558,6.689c0.558,1.673,1.673,3.345,3.345,4.46v1.673h-18.954
			c-0.558-1.673-1.115-2.788-1.115-3.902c-0.558-2.23-0.558-4.46-0.558-6.133v-6.689c0-4.46-1.115-7.806-2.787-9.478
			c-1.673-1.673-5.018-2.23-10.035-2.23H94.774v28.433H78.049v-73.589h39.024C122.648,361.394,127.108,361.952,129.896,363.066"/>
		<path fill="#FFFFFF" d="M205.156,417.143c3.902-4.46,6.133-11.15,6.133-19.513s-2.23-14.494-6.133-19.512
			c-3.902-4.46-9.478-6.69-16.167-6.69s-12.265,2.23-16.167,6.69s-6.133,11.149-6.133,19.512s2.23,14.495,6.133,19.513
			c3.902,4.46,9.478,6.689,16.167,6.689C195.679,424.39,201.254,422.161,205.156,417.143 M215.749,428.85
			c-6.133,5.575-15.053,8.362-27.317,8.362c-11.707,0-20.627-2.787-27.317-8.362c-8.362-7.247-12.822-17.282-12.822-30.662
			s4.46-23.972,12.822-30.662c6.133-5.574,15.053-8.362,27.317-8.362c11.707,0,20.627,2.788,27.317,8.362
			c8.362,6.69,12.265,16.725,12.265,30.662C228.572,411.568,224.112,421.603,215.749,428.85"/>
		<path fill="#FFFFFF" d="M289.338,384.251c-1.115-5.017-4.46-8.362-9.478-10.592c-2.787-1.115-6.133-1.673-9.478-1.673
			c-6.689,0-12.265,2.23-16.167,6.69c-4.46,4.46-6.69,11.149-6.69,20.069s2.23,15.609,6.69,19.513
			c4.46,3.902,10.035,5.574,15.609,5.574c5.575,0,10.593-1.672,14.495-4.46c3.902-2.787,6.133-6.689,6.689-11.707h-18.954v-12.265
			h34.564v39.582h-11.15l-1.672-9.478c-3.345,3.345-6.133,6.132-8.92,7.247c-4.46,2.23-10.035,3.902-16.725,3.902
			c-11.15,0-20.07-3.345-26.76-10.034c-7.247-6.69-11.149-16.168-11.149-27.875s3.902-21.742,11.149-28.989
			c7.247-7.248,17.282-10.593,29.547-10.593c10.593,0,18.955,2.23,25.645,7.248c6.133,5.017,10.035,10.592,11.15,17.839H289.338
			L289.338,384.251z"/>
		<path fill="#FFFFFF" d="M332.823,374.217v20.069h18.397c3.902,0,6.689-0.558,8.362-1.115c3.345-1.672,5.017-3.902,5.017-8.362
			s-1.672-7.247-5.017-8.92c-1.673-1.114-4.46-1.114-7.806-1.114h-18.954V374.217z M368.502,363.066
			c2.787,1.115,5.574,2.788,7.805,5.018c1.672,1.673,3.345,3.902,3.902,6.133c1.115,2.229,1.672,5.018,1.672,7.805
			c0,3.345-1.114,6.689-2.787,10.592c-2.229,3.346-5.018,5.575-10.035,7.248c3.902,1.115,6.69,3.345,8.362,5.574
			c1.673,2.788,2.23,6.133,2.23,11.708v5.018c0,3.345,0,5.574,0.558,6.689c0.558,1.673,1.672,3.345,3.345,4.46v1.673h-18.955
			c-0.557-1.673-1.114-2.788-1.114-3.902c-0.558-1.673-1.115-3.903-1.115-6.133v-6.689c0-4.46-1.115-7.806-2.787-9.478
			c-1.673-1.673-5.018-2.23-10.035-2.23h-16.725v28.433h-16.725v-73.589h39.581C361.254,361.394,365.714,361.952,368.502,363.066"/>
	</g>
	<polygon fill="#FFFFFF" points="451.01,374.217 408.083,374.217 408.083,389.826 447.665,389.826 447.665,402.648 408.083,402.648 
		408.083,422.161 453.24,422.161 453.24,434.983 391.359,434.983 391.359,361.394 451.01,361.394 	"/>
	<g>
		<path fill="#FFFFFF" d="M472.195,412.126c0.558,3.345,1.673,6.133,3.345,7.805c2.788,2.788,7.806,4.46,14.495,4.46
			c3.902,0,7.805-0.558,10.035-1.115c5.018-1.672,7.247-4.46,7.247-8.362c0-2.229-1.115-4.46-3.345-5.574
			c-2.229-1.115-6.133-2.23-11.707-3.346l-8.92-1.672c-8.92-1.673-15.053-3.902-18.397-5.575c-5.575-3.345-8.362-8.92-8.362-16.167
			c0-6.69,2.787-12.265,8.362-16.725s13.38-6.69,23.973-6.69c8.919,0,16.167,2.23,22.856,6.133
			c6.133,3.902,9.478,10.034,10.035,17.84h-16.725c-0.558-4.46-2.788-7.806-6.69-9.478c-2.787-1.115-6.132-1.673-10.034-1.673
			c-4.46,0-8.362,0.558-11.15,2.23c-2.787,1.672-3.902,3.902-3.902,6.689c0,2.788,1.115,4.46,3.902,6.133
			c1.673,1.115,5.575,1.672,11.15,2.787l14.494,3.345c6.133,1.115,11.15,3.346,14.495,5.575c5.018,3.345,7.247,8.362,7.247,15.053
			c0,6.689-2.787,12.265-8.92,16.725c-5.574,4.46-13.937,6.689-24.529,6.689c-11.149,0-19.513-2.229-25.645-6.689
			c-6.133-4.46-9.478-10.593-9.478-18.397H472.195z"/>
		<path fill="#FFFFFF" d="M541.323,412.126c0.558,3.345,1.673,6.133,3.346,7.805c2.787,2.788,7.805,4.46,14.494,4.46
			c3.902,0,7.805-0.558,10.035-1.115c5.018-1.672,7.247-4.46,7.247-8.362c0-2.229-1.115-4.46-3.902-5.574
			c-2.229-1.115-6.132-2.23-11.707-3.346l-8.92-1.672c-8.92-1.673-15.053-3.902-18.397-5.575c-5.575-3.345-8.362-8.92-8.362-16.167
			c0-6.69,2.787-12.265,8.362-16.725s13.38-6.69,23.973-6.69c8.92,0,16.167,2.23,22.856,6.133
			c6.133,3.902,9.478,10.034,10.035,17.84h-16.725c-0.558-4.46-2.787-7.806-6.689-9.478c-2.788-1.115-6.133-1.673-10.035-1.673
			c-4.46,0-8.362,0.558-11.15,2.23c-2.787,1.672-3.902,3.902-3.902,6.689c0,2.788,1.115,4.46,3.902,6.133
			c1.673,1.115,5.575,1.672,11.15,2.787l14.494,3.345c6.133,1.115,11.15,3.346,14.495,5.575c5.018,3.345,7.247,8.362,7.247,15.053
			c0,6.689-2.787,12.265-8.92,16.725c-6.132,4.46-13.937,6.689-24.529,6.689c-11.149,0-19.512-2.229-25.645-6.689
			s-9.478-10.593-9.478-18.397H541.323z"/>
		<path fill="#FFFFFF" d="M663.972,376.446c-2.229-1.672-5.018-2.229-9.478-2.229h-15.609v21.742h15.609
			c3.902,0,7.248-1.115,9.478-2.788c2.229-1.672,3.345-4.46,3.345-8.362S666.201,378.119,663.972,376.446 M677.352,403.206
			c-5.018,3.345-11.707,5.575-20.627,5.575h-17.282v26.202H622.16v-73.589h35.679c8.362,0,14.495,1.672,19.513,5.574
			s7.247,9.478,7.247,17.84S682.369,399.861,677.352,403.206"/>
	</g>
	<path fill="#FFFFFF" d="M704.669,407.108h21.185l-10.593-28.989L704.669,407.108z M705.783,361.394h19.513l29.547,74.146h-18.955
		l-5.574-15.053h-30.662l-5.575,15.053h-17.84L705.783,361.394z"/>
	<polygon fill="#FFFFFF" points="757.073,361.394 775.47,361.394 808.363,412.683 808.363,361.394 824.53,361.394 824.53,434.983 
		807.247,434.983 773.24,382.579 773.24,434.983 757.073,434.983 	"/>
	<polygon fill="#FFFFFF" points="893.101,374.217 850.174,374.217 850.174,389.826 889.198,389.826 889.198,402.648 
		850.174,402.648 850.174,422.161 894.774,422.161 894.774,434.983 833.449,434.983 833.449,361.394 893.101,361.394 	"/>
	<polygon fill="#FFFFFF" points="901.463,361.394 918.745,361.394 918.745,422.161 960,422.161 960,434.983 901.463,434.983 	"/>
	<polygon fill="#FFFFFF" points="240.836,341.882 240.836,169.617 376.307,169.617 376.307,209.757 297.7,209.757 297.7,240.975 
		360.139,240.975 360.139,281.115 297.7,281.115 297.7,341.882 	"/>
	<g>
		<path fill="#FFFFFF" d="M439.303,243.763h22.3c17.84,0,27.317-4.46,27.317-16.168c0-12.265-9.478-17.839-22.857-17.839h-26.76
			V243.763z M439.303,281.673v60.209h-56.864V169.617h81.951c57.979,0,76.934,15.609,76.934,49.059
			c0,20.07-8.92,36.795-28.989,42.37c18.397,6.689,29.547,11.149,29.547,45.714c0,22.3-0.558,30.104,6.133,30.104v5.018h-57.979
			c-1.672-3.902-2.787-15.052-2.787-30.104c0-22.3-3.902-30.104-30.662-30.104H439.303z"/>
	</g>
	<rect x="557.491" y="169.617" fill="#FFFFFF" width="56.863" height="172.265"/>
	<g>
		<path fill="#FFFFFF" d="M742.578,235.401c-1.673-17.84-12.822-28.433-30.662-28.433c-20.07,0-32.335,17.282-32.335,50.175
			c0,23.972,5.575,46.829,34.564,46.829c18.397,0,27.317-12.822,28.99-28.99h54.634c-5.018,44.6-37.352,71.359-83.066,71.359
			c-57.422,0-92.543-35.122-92.543-90.871s38.467-90.313,86.969-90.313c52.961,0,83.065,26.202,87.525,70.244H742.578z"/>
	</g>
	<polygon fill="#FFFFFF" points="226.899,340.21 147.178,122.788 80.836,122.788 0,340.21 63.554,340.21 114.285,210.313 
		163.903,340.21 	"/>
	<polygon fill="#FFFFFF" points="960,340.766 897.003,168.502 844.599,168.502 779.93,340.766 830.661,340.766 870.801,237.631 
		909.825,340.766 	"/>
</g>
</svg>
